{"title":"TPB.Red.Eye.w.Greg.Gutfeld.2014.01.07.720p.HDTV.x264-HDContentDu","uid":9458561,"size":685242826,"categoryP":"video","categoryS":"hd___tv_shows","magnet":"?xt=urn:btih:563f5716a3c1b834f7a42681478deb91b90c4d3c&amp;dn=TPB.Red.Eye.w.Greg.Gutfeld.2014.01.07.720p.HDTV.x264-HDContentDu&amp;tr=udp%3A%2F%2Ftracker.openbittorrent.com%3A80&amp;tr=udp%3A%2F%2Fopen.demonii.com%3A1337&amp;tr=udp%3A%2F%2Ftracker.coppersurfer.tk%3A6969&amp;tr=udp%3A%2F%2Fexodus.desync.com%3A6969","seeders":1,"leechers":0,"uploader":"Reive","files":1,"time":1389311743,"description":"Show Information\nRed Eye w/Greg Gutfeld is an American late-night/early-morning satirical talk show on the Fox News Channel, airing at 3:00 am ET Tuesday through Saturday and 11:00 pm Saturday and 2:00 am Sunday. The show features panelists and guests discussing the latest news in politics, pop culture, entertainment, business, sports, and religion. The show is hosted by Greg Gutfeld, a self-described libertarian, who is a former Maxim UK editor. \n\nScreenshots &lt;a href=&quot;\nhttp://i.imgur.com/DJJcv7K.png&quot; rel=&quot;nofollow&quot; target=&quot;_NEW&quot;&gt;\nhttp://i.imgur.com/DJJcv7K.png&lt;/a&gt; &lt;a href=&quot;\nhttp://i.imgur.com/ymN1sgp.png&quot; rel=&quot;nofollow&quot; target=&quot;_NEW&quot;&gt;\nhttp://i.imgur.com/ymN1sgp.png&lt;/a&gt;\n\nGeneral \nUnique ID : 187021788164435400155803268151626663179 (0x8CB31611B81C416E9F52486F2BA3850B) \nComplete name : H:Television@Midnight@Midnight Season 02at.midnight.2014.01.08.720p-yestv.mkv \nFormat : Matroska \nFormat version : Version 2 \nFile size : 435 MiB \nDuration : 20mn 59s \nOverall bit rate : 2 900 Kbps \nEncoded date : UTC 2014-01-09 08:57:36 \nWriting application : mkvmerge v6.2.0 ('Promised Land') built on Apr 28 2013 12:22:01 \nWriting library : libebml v1.3.0 + libmatroska v1.4.0 \n\nVideo \nID : 1 \nFormat : AVC \nFormat/Info : Advanced Video Codec \nFormat profile : &lt;a class=&quot;__cf_email__&quot; href=&quot;/cdn-cgi/l/email-protection&quot; data-cfemail=&quot;571f3e303f171b637966&quot;&gt;[email&amp;#160;protected]&lt;/a&gt;&lt;script cf-hash='f9e31' type=&quot;text/javascript&quot;&gt;\n/* &lt;![CDATA[ */!function(){try{var t=&quot;currentScript&quot;in document?document.currentScript:function(){for(var t=document.getElementsByTagName(&quot;script&quot;),e=t.length;e--;)if(t[e].getAttribute(&quot;cf-hash&quot;))return t[e]}();if(t&amp;&amp;t.previousSibling){var e,r,n,i,c=t.previousSibling,a=c.getAttribute(&quot;data-cfemail&quot;);if(a){for(e=&quot;&quot;,r=parseInt(a.substr(0,2),16),n=2;a.length-n;n+=2)i=parseInt(a.substr(n,2),16)^r,e+=String.fromCharCode(i);e=document.createTextNode(e),c.parentNode.replaceChild(e,c)}}}catch(u){}}();/* ]]&gt; */&lt;/script&gt; \nFormat settings, CABAC : Yes \nFormat settings, ReFrames : 5 frames \nCodec ID : V_MPEG4/ISO/AVC \nDuration : 20mn 59s \nBit rate : 2 458 Kbps \nWidth : 1 280 pixels \nHeight : 720 pixels \nDisplay aspect ratio : 16:9 \nFrame rate mode : Constant \nFrame rate : 29.970 fps \nColor space : YUV \nChroma subsampling : 4:2:0 \nBit depth : 8 bits \nScan type : Progressive \nBits/(Pixel*Frame) : 0.089 \nStream size : 369 MiB (85%) \nWriting library : x264 core 140 r2377 1ca7bb9 \nEncoding settings : cabac=1 / ref=5 / deblock=1:0:0 / analyse=0x3:0x113 / me=umh / subme=8 / psy=1 / psy_rd=1.00:0.00 / mixed_ref=1 / me_range=16 / chroma_me=1 / trellis=1 / 8x8dct=1 / cqm=0 / deadzone=21,11 / fast_pskip=1 / chroma_qp_offset=-2 / threads=9 / lookahead_threads=1 / sliced_threads=0 / nr=0 / decimate=1 / interlaced=0 / bluray_compat=0 / constrained_intra=0 / bframes=3 / b_pyramid=2 / b_adapt=2 / b_bias=0 / direct=3 / weightb=1 / open_gop=0 / weightp=2 / keyint=300 / keyint_min=30 / scenecut=40 / intra_refresh=0 / rc_lookahead=50 / rc=crf / mbtree=1 / crf=18.0 / qcomp=0.60 / qpmin=0 / qpmax=69 / qpstep=4 / ip_ratio=1.40 / aq=1:1.00 \nDefault : Yes \nForced : No \nMatrix coefficients : BT.709 \n\nAudio \nID : 2 \nFormat : AC-3 \nFormat/Info : Audio Coding 3 \nMode extension : CM (complete main) \nFormat settings, Endianness : Big \nCodec ID : A_AC3 \nDuration : 20mn 59s \nBit rate mode : Constant \nBit rate : 384 Kbps \nChannel(s) : 2 channels \nChannel positions : Front: L R \nSampling rate : 48.0 KHz \nBit depth : 16 bits \nCompression mode : Lossy \nStream size : 57.6 MiB (13%) \nLanguage : English \nDefault : Yes \nForced : No \n\n","torrent":{"xt":"urn:btih:563f5716a3c1b834f7a42681478deb91b90c4d3c","amp;dn":"TPB.Red.Eye.w.Greg.Gutfeld.2014.01.07.720p.HDTV.x264-HDContentDu","amp;tr":["udp%3A%2F%2Ftracker.openbittorrent.com%3A80","udp%3A%2F%2Fopen.demonii.com%3A1337","udp%3A%2F%2Ftracker.coppersurfer.tk%3A6969","udp%3A%2F%2Fexodus.desync.com%3A6969"],"infoHash":"563f5716a3c1b834f7a42681478deb91b90c4d3c","infoHashBuffer":{"type":"Buffer","data":[86,63,87,22,163,193,184,52,247,164,38,129,71,141,235,145,185,12,77,60]},"announce":[],"urlList":[]}}